<mxfile host="Electron" modified="2023-04-05T09:01:40.454Z" agent="Mozilla/5.0 (Windows NT 10.0; Win64; x64) AppleWebKit/537.36 (KHTML, like Gecko) draw.io/21.1.2 Chrome/106.0.5249.199 Electron/21.4.3 Safari/537.36" etag="iudRqqCc6QySoeDh1rTx" version="21.1.2" type="device" pages="2">
  <diagram id="53I4qKDEr6kbqqrc6_xm" name="NO INDEX">
    <mxGraphModel dx="1101" dy="1632" grid="0" gridSize="10" guides="1" tooltips="1" connect="1" arrows="1" fold="1" page="0" pageScale="1" pageWidth="827" pageHeight="1169" math="0" shadow="0">
      <root>
        <mxCell id="0" />
        <mxCell id="1" parent="0" />
        <mxCell id="HQeD0uwobpxXqa37XLjR-2" value="&lt;div&gt;&lt;b&gt;UPDATE &lt;/b&gt;foo.EXECUTION_NO_PK&lt;/div&gt;&lt;div&gt;&lt;b&gt;SET &lt;/b&gt;STATUS = &#39;AAA&#39;&lt;/div&gt;&lt;div&gt;&lt;b&gt;WHERE &lt;/b&gt;ID &amp;lt;= 6&lt;/div&gt;" style="rounded=0;whiteSpace=wrap;html=1;labelBackgroundColor=none;align=left;verticalAlign=top;fontFamily=Courier New;spacingLeft=5;spacingBottom=5;spacingTop=5;" parent="1" vertex="1">
          <mxGeometry x="280" y="40" width="220" height="460" as="geometry" />
        </mxCell>
        <mxCell id="HQeD0uwobpxXqa37XLjR-4" value="Session 1" style="rounded=1;whiteSpace=wrap;html=1;labelBackgroundColor=none;fontFamily=Helvetica;fillColor=#d5e8d4;strokeColor=#82b366;fontStyle=1" parent="1" vertex="1">
          <mxGeometry x="330" y="-30" width="120" height="30" as="geometry" />
        </mxCell>
        <mxCell id="HQeD0uwobpxXqa37XLjR-5" value="Session 2" style="rounded=1;whiteSpace=wrap;html=1;labelBackgroundColor=none;fontFamily=Helvetica;fillColor=#d5e8d4;strokeColor=#82b366;fontStyle=1" parent="1" vertex="1">
          <mxGeometry x="560" y="90" width="120" height="30" as="geometry" />
        </mxCell>
        <mxCell id="HQeD0uwobpxXqa37XLjR-7" value="&lt;div&gt;&lt;b&gt;BEGIN TRANSACTION&lt;/b&gt;&lt;/div&gt;" style="rounded=0;whiteSpace=wrap;html=1;labelBackgroundColor=none;align=left;verticalAlign=top;fontFamily=Courier New;spacingLeft=5;spacingBottom=0;spacingTop=0;" parent="1" vertex="1">
          <mxGeometry x="280" width="220" height="40" as="geometry" />
        </mxCell>
        <mxCell id="HQeD0uwobpxXqa37XLjR-8" value="&lt;div&gt;&lt;b&gt;COMMIT&lt;/b&gt;&lt;/div&gt;" style="rounded=0;whiteSpace=wrap;html=1;labelBackgroundColor=none;align=left;verticalAlign=bottom;fontFamily=Courier New;spacingLeft=5;spacingBottom=0;spacingTop=0;" parent="1" vertex="1">
          <mxGeometry x="280" y="500" width="220" height="30" as="geometry" />
        </mxCell>
        <mxCell id="HQeD0uwobpxXqa37XLjR-10" value="&lt;table border=&quot;1&quot; width=&quot;100%&quot; height=&quot;100%&quot; cellpadding=&quot;4&quot; style=&quot;width: 100%; height: 100%; border-collapse: collapse; background-color: rgb(255, 255, 255); border: 1px solid rgb(0, 0, 0);&quot;&gt;&lt;tbody&gt;&lt;tr style=&quot;color: rgb(255, 255, 255);&quot;&gt;&lt;th style=&quot;background-color: rgb(151, 208, 119);&quot; align=&quot;left&quot;&gt;@RID&lt;/th&gt;&lt;th style=&quot;background-color: rgb(151, 208, 119);&quot; align=&quot;left&quot;&gt;MODE&lt;/th&gt;&lt;th style=&quot;background-color: rgb(151, 208, 119);&quot; align=&quot;left&quot;&gt;STATUS&lt;/th&gt;&lt;/tr&gt;&lt;tr style=&quot;&quot;&gt;&lt;td&gt;1:616:0&lt;/td&gt;&lt;td&gt;X&lt;/td&gt;&lt;td&gt;GRANT&lt;/td&gt;&lt;/tr&gt;&lt;tr style=&quot;&quot;&gt;&lt;td&gt;1:616:1&lt;br&gt;&lt;/td&gt;&lt;td&gt;X&lt;/td&gt;&lt;td&gt;GRANT&lt;br&gt;&lt;/td&gt;&lt;/tr&gt;&lt;tr style=&quot;&quot;&gt;&lt;td&gt;1:616:2&lt;br&gt;&lt;/td&gt;&lt;td&gt;X&lt;/td&gt;&lt;td&gt;GRANT&lt;br&gt;&lt;/td&gt;&lt;/tr&gt;&lt;tr style=&quot;&quot;&gt;&lt;td style=&quot;&quot;&gt;1:616:3&lt;br&gt;&lt;/td&gt;&lt;td style=&quot;&quot;&gt;X&lt;/td&gt;&lt;td style=&quot;&quot;&gt;GRANT&lt;br&gt;&lt;/td&gt;&lt;/tr&gt;&lt;tr&gt;&lt;td&gt;1:616:4&lt;br&gt;&lt;/td&gt;&lt;td&gt;X&lt;/td&gt;&lt;td&gt;GRANT&lt;br&gt;&lt;/td&gt;&lt;/tr&gt;&lt;tr&gt;&lt;td&gt;1:616:5&lt;br&gt;&lt;/td&gt;&lt;td&gt;X&lt;/td&gt;&lt;td&gt;GRANT&lt;br&gt;&lt;/td&gt;&lt;/tr&gt;&lt;tr&gt;&lt;td&gt;1:616:6&lt;br&gt;&lt;/td&gt;&lt;td&gt;&lt;br&gt;&lt;/td&gt;&lt;td&gt;&lt;br&gt;&lt;/td&gt;&lt;/tr&gt;&lt;tr&gt;&lt;td&gt;1:616:7&lt;br&gt;&lt;/td&gt;&lt;td&gt;&lt;br&gt;&lt;/td&gt;&lt;td&gt;&lt;br&gt;&lt;/td&gt;&lt;/tr&gt;&lt;tr&gt;&lt;td&gt;1:616:8&lt;br&gt;&lt;/td&gt;&lt;td&gt;&lt;br&gt;&lt;/td&gt;&lt;td&gt;&lt;br&gt;&lt;/td&gt;&lt;/tr&gt;&lt;tr&gt;&lt;td&gt;1:616:9&lt;br&gt;&lt;/td&gt;&lt;td&gt;&lt;br&gt;&lt;/td&gt;&lt;td&gt;&lt;br&gt;&lt;/td&gt;&lt;/tr&gt;&lt;/tbody&gt;&lt;/table&gt;" style="text;html=1;strokeColor=#c0c0c0;fillColor=#ffffff;overflow=fill;rounded=0;" parent="1" vertex="1">
          <mxGeometry x="296" y="100" width="160" height="260" as="geometry" />
        </mxCell>
        <mxCell id="HQeD0uwobpxXqa37XLjR-11" value="&lt;table border=&quot;1&quot; width=&quot;100%&quot; height=&quot;100%&quot; cellpadding=&quot;4&quot; style=&quot;width: 100%; height: 100%; border-collapse: collapse; background-color: rgb(255, 255, 255); border: 1px solid rgb(0, 0, 0);&quot;&gt;&lt;tbody&gt;&lt;tr style=&quot;color: rgb(255, 255, 255);&quot;&gt;&lt;th style=&quot;background-color: rgb(151, 208, 119);&quot; align=&quot;left&quot;&gt;@RID&lt;/th&gt;&lt;th style=&quot;background-color: rgb(151, 208, 119);&quot; align=&quot;left&quot;&gt;ID&lt;/th&gt;&lt;th style=&quot;background-color: rgb(151, 208, 119);&quot; align=&quot;left&quot;&gt;STATUS&lt;/th&gt;&lt;/tr&gt;&lt;tr style=&quot;&quot;&gt;&lt;td&gt;1:616:0&lt;/td&gt;&lt;td&gt;1&lt;/td&gt;&lt;td&gt;AAA&lt;/td&gt;&lt;/tr&gt;&lt;tr style=&quot;&quot;&gt;&lt;td&gt;1:616:1&lt;br&gt;&lt;/td&gt;&lt;td&gt;2&lt;/td&gt;&lt;td&gt;AAA&lt;/td&gt;&lt;/tr&gt;&lt;tr style=&quot;&quot;&gt;&lt;td&gt;1:616:2&lt;br&gt;&lt;/td&gt;&lt;td&gt;3&lt;/td&gt;&lt;td&gt;AAA&lt;/td&gt;&lt;/tr&gt;&lt;tr style=&quot;&quot;&gt;&lt;td style=&quot;&quot;&gt;1:616:3&lt;br&gt;&lt;/td&gt;&lt;td style=&quot;&quot;&gt;4&lt;/td&gt;&lt;td style=&quot;&quot;&gt;AAA&lt;/td&gt;&lt;/tr&gt;&lt;tr&gt;&lt;td&gt;1:616:4&lt;br&gt;&lt;/td&gt;&lt;td&gt;5&lt;/td&gt;&lt;td&gt;AAA&lt;/td&gt;&lt;/tr&gt;&lt;tr&gt;&lt;td&gt;1:616:5&lt;br&gt;&lt;/td&gt;&lt;td&gt;6&lt;/td&gt;&lt;td&gt;AAA&lt;/td&gt;&lt;/tr&gt;&lt;tr&gt;&lt;td style=&quot;background-color: rgb(255, 255, 204);&quot;&gt;1:616:6&lt;br&gt;&lt;/td&gt;&lt;td style=&quot;background-color: rgb(255, 255, 204);&quot;&gt;7&lt;/td&gt;&lt;td style=&quot;background-color: rgb(255, 255, 204);&quot;&gt;XXX&lt;br&gt;&lt;/td&gt;&lt;/tr&gt;&lt;tr&gt;&lt;td&gt;1:616:7&lt;br&gt;&lt;/td&gt;&lt;td&gt;8&lt;/td&gt;&lt;td&gt;BBB&lt;br&gt;&lt;/td&gt;&lt;/tr&gt;&lt;tr&gt;&lt;td&gt;1:616:8&lt;br&gt;&lt;/td&gt;&lt;td&gt;9&lt;/td&gt;&lt;td&gt;BBB&lt;/td&gt;&lt;/tr&gt;&lt;tr&gt;&lt;td&gt;1:616:9&lt;br&gt;&lt;/td&gt;&lt;td&gt;10&lt;/td&gt;&lt;td&gt;BBB&lt;/td&gt;&lt;/tr&gt;&lt;/tbody&gt;&lt;/table&gt;" style="text;html=1;strokeColor=#c0c0c0;fillColor=#ffffff;overflow=fill;rounded=0;" parent="1" vertex="1">
          <mxGeometry x="70" y="909" width="150" height="260" as="geometry" />
        </mxCell>
        <mxCell id="HQeD0uwobpxXqa37XLjR-12" value="&lt;div&gt;&lt;b&gt;BEGIN TRANSACTION&lt;/b&gt;&lt;/div&gt;" style="rounded=0;whiteSpace=wrap;html=1;labelBackgroundColor=none;align=left;verticalAlign=top;fontFamily=Courier New;spacingLeft=5;spacingBottom=0;spacingTop=0;" parent="1" vertex="1">
          <mxGeometry x="510" y="120" width="220" height="40" as="geometry" />
        </mxCell>
        <mxCell id="HQeD0uwobpxXqa37XLjR-13" value="&lt;div&gt;&lt;b&gt;UPDATE &lt;/b&gt;foo.EXECUTION_NO_PK&lt;/div&gt;&lt;div&gt;&lt;b&gt;SET &lt;/b&gt;STATUS = &#39;BBB&#39;&lt;/div&gt;&lt;div&gt;&lt;b&gt;WHERE &lt;/b&gt;ID &amp;gt; 7&lt;/div&gt;" style="rounded=0;whiteSpace=wrap;html=1;labelBackgroundColor=none;align=left;verticalAlign=top;fontFamily=Courier New;spacingLeft=5;spacingBottom=5;spacingTop=5;" parent="1" vertex="1">
          <mxGeometry x="510" y="160" width="220" height="670" as="geometry" />
        </mxCell>
        <mxCell id="HQeD0uwobpxXqa37XLjR-14" value="&lt;div&gt;&lt;b&gt;COMMIT&lt;/b&gt;&lt;/div&gt;" style="rounded=0;whiteSpace=wrap;html=1;labelBackgroundColor=none;align=left;verticalAlign=bottom;fontFamily=Courier New;spacingLeft=5;spacingBottom=0;spacingTop=0;" parent="1" vertex="1">
          <mxGeometry x="510" y="830" width="220" height="30" as="geometry" />
        </mxCell>
        <mxCell id="HQeD0uwobpxXqa37XLjR-15" value="&lt;table border=&quot;1&quot; width=&quot;100%&quot; height=&quot;100%&quot; cellpadding=&quot;4&quot; style=&quot;width: 100%; height: 100%; border-collapse: collapse; background-color: rgb(255, 255, 255); border: 1px solid rgb(0, 0, 0);&quot;&gt;&lt;tbody&gt;&lt;tr style=&quot;color: rgb(255, 255, 255);&quot;&gt;&lt;th style=&quot;background-color: rgb(151, 208, 119);&quot; align=&quot;left&quot;&gt;@RID&lt;/th&gt;&lt;th style=&quot;background-color: rgb(151, 208, 119);&quot; align=&quot;left&quot;&gt;MODE&lt;/th&gt;&lt;th style=&quot;background-color: rgb(151, 208, 119);&quot; align=&quot;left&quot;&gt;STATUS&lt;/th&gt;&lt;/tr&gt;&lt;tr style=&quot;&quot;&gt;&lt;td&gt;1:616:0&lt;/td&gt;&lt;td&gt;U&lt;/td&gt;&lt;td&gt;WAIT&lt;/td&gt;&lt;/tr&gt;&lt;tr style=&quot;&quot;&gt;&lt;td&gt;1:616:1&lt;br&gt;&lt;/td&gt;&lt;td&gt;&lt;br&gt;&lt;/td&gt;&lt;td&gt;&lt;br&gt;&lt;/td&gt;&lt;/tr&gt;&lt;tr style=&quot;&quot;&gt;&lt;td&gt;1:616:2&lt;br&gt;&lt;/td&gt;&lt;td&gt;&lt;br&gt;&lt;/td&gt;&lt;td&gt;&lt;br&gt;&lt;/td&gt;&lt;/tr&gt;&lt;tr style=&quot;&quot;&gt;&lt;td style=&quot;&quot;&gt;1:616:3&lt;br&gt;&lt;/td&gt;&lt;td style=&quot;&quot;&gt;&lt;br&gt;&lt;/td&gt;&lt;td style=&quot;&quot;&gt;&lt;br&gt;&lt;/td&gt;&lt;/tr&gt;&lt;tr&gt;&lt;td&gt;1:616:4&lt;br&gt;&lt;/td&gt;&lt;td&gt;&lt;br&gt;&lt;/td&gt;&lt;td&gt;&lt;br&gt;&lt;/td&gt;&lt;/tr&gt;&lt;tr&gt;&lt;td&gt;1:616:5&lt;br&gt;&lt;/td&gt;&lt;td&gt;&lt;br&gt;&lt;/td&gt;&lt;td&gt;&lt;br&gt;&lt;/td&gt;&lt;/tr&gt;&lt;tr&gt;&lt;td&gt;1:616:6&lt;br&gt;&lt;/td&gt;&lt;td&gt;&lt;br&gt;&lt;/td&gt;&lt;td&gt;&lt;br&gt;&lt;/td&gt;&lt;/tr&gt;&lt;tr&gt;&lt;td&gt;1:616:7&lt;br&gt;&lt;/td&gt;&lt;td&gt;&lt;br&gt;&lt;/td&gt;&lt;td&gt;&lt;br&gt;&lt;/td&gt;&lt;/tr&gt;&lt;tr&gt;&lt;td&gt;1:616:8&lt;br&gt;&lt;/td&gt;&lt;td&gt;&lt;br&gt;&lt;/td&gt;&lt;td&gt;&lt;br&gt;&lt;/td&gt;&lt;/tr&gt;&lt;tr&gt;&lt;td&gt;1:616:9&lt;br&gt;&lt;/td&gt;&lt;td&gt;&lt;br&gt;&lt;/td&gt;&lt;td&gt;&lt;br&gt;&lt;/td&gt;&lt;/tr&gt;&lt;/tbody&gt;&lt;/table&gt;" style="text;html=1;strokeColor=#c0c0c0;fillColor=#ffffff;overflow=fill;rounded=0;" parent="1" vertex="1">
          <mxGeometry x="526" y="220" width="160" height="260" as="geometry" />
        </mxCell>
        <mxCell id="HQeD0uwobpxXqa37XLjR-16" value="&lt;table border=&quot;1&quot; width=&quot;100%&quot; height=&quot;100%&quot; cellpadding=&quot;4&quot; style=&quot;width: 100%; height: 100%; border-collapse: collapse; background-color: rgb(255, 255, 255); border: 1px solid rgb(0, 0, 0);&quot;&gt;&lt;tbody&gt;&lt;tr style=&quot;color: rgb(255, 255, 255);&quot;&gt;&lt;th style=&quot;background-color: rgb(151, 208, 119);&quot; align=&quot;left&quot;&gt;@RID&lt;/th&gt;&lt;th style=&quot;background-color: rgb(151, 208, 119);&quot; align=&quot;left&quot;&gt;MODE&lt;/th&gt;&lt;th style=&quot;background-color: rgb(151, 208, 119);&quot; align=&quot;left&quot;&gt;STATUS&lt;/th&gt;&lt;/tr&gt;&lt;tr style=&quot;&quot;&gt;&lt;td&gt;1:616:0&lt;/td&gt;&lt;td&gt;&lt;br&gt;&lt;/td&gt;&lt;td&gt;&lt;br&gt;&lt;/td&gt;&lt;/tr&gt;&lt;tr style=&quot;&quot;&gt;&lt;td&gt;1:616:1&lt;br&gt;&lt;/td&gt;&lt;td&gt;&lt;br&gt;&lt;/td&gt;&lt;td&gt;&lt;br&gt;&lt;/td&gt;&lt;/tr&gt;&lt;tr style=&quot;&quot;&gt;&lt;td&gt;1:616:2&lt;br&gt;&lt;/td&gt;&lt;td&gt;&lt;br&gt;&lt;/td&gt;&lt;td&gt;&lt;br&gt;&lt;/td&gt;&lt;/tr&gt;&lt;tr style=&quot;&quot;&gt;&lt;td style=&quot;&quot;&gt;1:616:3&lt;br&gt;&lt;/td&gt;&lt;td style=&quot;&quot;&gt;&lt;br&gt;&lt;/td&gt;&lt;td style=&quot;&quot;&gt;&lt;br&gt;&lt;/td&gt;&lt;/tr&gt;&lt;tr&gt;&lt;td&gt;1:616:4&lt;br&gt;&lt;/td&gt;&lt;td&gt;&lt;br&gt;&lt;/td&gt;&lt;td&gt;&lt;br&gt;&lt;/td&gt;&lt;/tr&gt;&lt;tr&gt;&lt;td&gt;1:616:5&lt;br&gt;&lt;/td&gt;&lt;td&gt;&lt;br&gt;&lt;/td&gt;&lt;td&gt;&lt;br&gt;&lt;/td&gt;&lt;/tr&gt;&lt;tr&gt;&lt;td&gt;1:616:6&lt;br&gt;&lt;/td&gt;&lt;td&gt;&lt;br&gt;&lt;/td&gt;&lt;td&gt;&lt;br&gt;&lt;/td&gt;&lt;/tr&gt;&lt;tr&gt;&lt;td&gt;1:616:7&lt;br&gt;&lt;/td&gt;&lt;td&gt;X&lt;/td&gt;&lt;td&gt;GRANT&lt;/td&gt;&lt;/tr&gt;&lt;tr&gt;&lt;td&gt;1:616:8&lt;br&gt;&lt;/td&gt;&lt;td&gt;X&lt;/td&gt;&lt;td&gt;GRANT&lt;/td&gt;&lt;/tr&gt;&lt;tr&gt;&lt;td&gt;1:616:9&lt;br&gt;&lt;/td&gt;&lt;td&gt;X&lt;/td&gt;&lt;td&gt;GRANT&lt;/td&gt;&lt;/tr&gt;&lt;/tbody&gt;&lt;/table&gt;" style="text;html=1;strokeColor=#c0c0c0;fillColor=#ffffff;overflow=fill;rounded=0;" parent="1" vertex="1">
          <mxGeometry x="526" y="560" width="160" height="260" as="geometry" />
        </mxCell>
        <mxCell id="HQeD0uwobpxXqa37XLjR-18" value="&lt;table border=&quot;1&quot; width=&quot;100%&quot; height=&quot;100%&quot; cellpadding=&quot;4&quot; style=&quot;width: 100%; height: 100%; border-collapse: collapse; background-color: rgb(255, 255, 255); border: 1px solid rgb(0, 0, 0);&quot;&gt;&lt;tbody&gt;&lt;tr style=&quot;color: rgb(255, 255, 255);&quot;&gt;&lt;th style=&quot;background-color: rgb(151, 208, 119);&quot; align=&quot;left&quot;&gt;@RID&lt;/th&gt;&lt;th style=&quot;background-color: rgb(151, 208, 119);&quot; align=&quot;left&quot;&gt;Session 1&lt;/th&gt;&lt;th style=&quot;background-color: rgb(151, 208, 119);&quot; align=&quot;left&quot;&gt;Session 2&lt;/th&gt;&lt;/tr&gt;&lt;tr style=&quot;&quot;&gt;&lt;td&gt;1:616:0&lt;/td&gt;&lt;td style=&quot;background-color: rgb(255, 153, 153);&quot;&gt;X : GRANT&lt;/td&gt;&lt;td style=&quot;background-color: rgb(255, 153, 153);&quot;&gt;U : WAIT&lt;/td&gt;&lt;/tr&gt;&lt;tr style=&quot;&quot;&gt;&lt;td&gt;1:616:1&lt;br&gt;&lt;/td&gt;&lt;td&gt;X&amp;nbsp;: GRANT&lt;/td&gt;&lt;td&gt;&lt;br&gt;&lt;/td&gt;&lt;/tr&gt;&lt;tr style=&quot;&quot;&gt;&lt;td&gt;1:616:2&lt;br&gt;&lt;/td&gt;&lt;td&gt;X&amp;nbsp;: GRANT&lt;/td&gt;&lt;td&gt;&lt;br&gt;&lt;/td&gt;&lt;/tr&gt;&lt;tr style=&quot;&quot;&gt;&lt;td style=&quot;&quot;&gt;1:616:3&lt;br&gt;&lt;/td&gt;&lt;td style=&quot;&quot;&gt;X&amp;nbsp;: GRANT&lt;/td&gt;&lt;td style=&quot;&quot;&gt;&lt;br&gt;&lt;/td&gt;&lt;/tr&gt;&lt;tr&gt;&lt;td&gt;1:616:4&lt;br&gt;&lt;/td&gt;&lt;td&gt;X&amp;nbsp;: GRANT&lt;/td&gt;&lt;td&gt;&lt;br&gt;&lt;/td&gt;&lt;/tr&gt;&lt;tr&gt;&lt;td&gt;1:616:5&lt;br&gt;&lt;/td&gt;&lt;td&gt;X&amp;nbsp;: GRANT&lt;/td&gt;&lt;td&gt;&lt;br&gt;&lt;/td&gt;&lt;/tr&gt;&lt;tr&gt;&lt;td&gt;1:616:6&lt;br&gt;&lt;/td&gt;&lt;td&gt;&lt;br&gt;&lt;/td&gt;&lt;td&gt;&lt;br&gt;&lt;/td&gt;&lt;/tr&gt;&lt;tr&gt;&lt;td&gt;1:616:7&lt;br&gt;&lt;/td&gt;&lt;td&gt;&lt;br&gt;&lt;/td&gt;&lt;td&gt;&lt;br&gt;&lt;/td&gt;&lt;/tr&gt;&lt;tr&gt;&lt;td&gt;1:616:8&lt;br&gt;&lt;/td&gt;&lt;td&gt;&lt;br&gt;&lt;/td&gt;&lt;td&gt;&lt;br&gt;&lt;/td&gt;&lt;/tr&gt;&lt;tr&gt;&lt;td&gt;1:616:9&lt;br&gt;&lt;/td&gt;&lt;td&gt;&lt;br&gt;&lt;/td&gt;&lt;td&gt;&lt;br&gt;&lt;/td&gt;&lt;/tr&gt;&lt;/tbody&gt;&lt;/table&gt;" style="text;html=1;strokeColor=#c0c0c0;fillColor=#ffffff;overflow=fill;rounded=0;" parent="1" vertex="1">
          <mxGeometry x="740" y="220" width="190" height="260" as="geometry" />
        </mxCell>
        <mxCell id="HQeD0uwobpxXqa37XLjR-19" value="" style="shape=flexArrow;endArrow=classic;html=1;rounded=0;fontFamily=Helvetica;fillColor=#ffe6cc;strokeColor=#d79b00;" parent="1" edge="1">
          <mxGeometry width="50" height="50" relative="1" as="geometry">
            <mxPoint x="240" y="-290" as="sourcePoint" />
            <mxPoint x="240" y="1190" as="targetPoint" />
          </mxGeometry>
        </mxCell>
        <mxCell id="HQeD0uwobpxXqa37XLjR-20" value="" style="rounded=0;whiteSpace=wrap;html=1;labelBackgroundColor=none;fontFamily=Helvetica;fillColor=#f5f5f5;strokeColor=#666666;fontColor=#333333;" parent="1" vertex="1">
          <mxGeometry x="260" y="540" width="690" height="10" as="geometry" />
        </mxCell>
        <mxCell id="guT31FLYsXXl6KStu_ry-2" value="EXECUTION_NO_PK" style="rounded=0;whiteSpace=wrap;html=1;fillColor=#e1d5e7;strokeColor=#9673a6;fontStyle=1" parent="1" vertex="1">
          <mxGeometry x="70" y="879" width="150" height="30" as="geometry" />
        </mxCell>
        <mxCell id="5kbSQxdAUydemz-pBGqZ-1" value="&lt;table border=&quot;1&quot; width=&quot;100%&quot; height=&quot;100%&quot; cellpadding=&quot;4&quot; style=&quot;width: 100%; height: 100%; border-collapse: collapse; background-color: rgb(255, 255, 255); border: 1px solid rgb(0, 0, 0);&quot;&gt;&lt;tbody&gt;&lt;tr style=&quot;color: rgb(255, 255, 255);&quot;&gt;&lt;th style=&quot;background-color: rgb(151, 208, 119);&quot; align=&quot;left&quot;&gt;@RID&lt;/th&gt;&lt;th style=&quot;background-color: rgb(151, 208, 119);&quot; align=&quot;left&quot;&gt;ID&lt;/th&gt;&lt;th style=&quot;background-color: rgb(151, 208, 119);&quot; align=&quot;left&quot;&gt;STATUS&lt;/th&gt;&lt;/tr&gt;&lt;tr style=&quot;&quot;&gt;&lt;td&gt;1:616:0&lt;/td&gt;&lt;td&gt;1&lt;/td&gt;&lt;td&gt;XXX&lt;/td&gt;&lt;/tr&gt;&lt;tr style=&quot;&quot;&gt;&lt;td&gt;1:616:1&lt;br&gt;&lt;/td&gt;&lt;td&gt;2&lt;/td&gt;&lt;td&gt;&lt;span style=&quot;&quot;&gt;XXX&lt;/span&gt;&lt;/td&gt;&lt;/tr&gt;&lt;tr style=&quot;&quot;&gt;&lt;td&gt;1:616:2&lt;br&gt;&lt;/td&gt;&lt;td&gt;3&lt;/td&gt;&lt;td&gt;XXX&lt;/td&gt;&lt;/tr&gt;&lt;tr style=&quot;&quot;&gt;&lt;td style=&quot;&quot;&gt;1:616:3&lt;br&gt;&lt;/td&gt;&lt;td style=&quot;&quot;&gt;4&lt;/td&gt;&lt;td style=&quot;&quot;&gt;XXX&lt;/td&gt;&lt;/tr&gt;&lt;tr&gt;&lt;td&gt;1:616:4&lt;br&gt;&lt;/td&gt;&lt;td&gt;5&lt;/td&gt;&lt;td&gt;XXX&lt;br&gt;&lt;/td&gt;&lt;/tr&gt;&lt;tr&gt;&lt;td&gt;1:616:5&lt;br&gt;&lt;/td&gt;&lt;td&gt;6&lt;/td&gt;&lt;td&gt;XXX&lt;br&gt;&lt;/td&gt;&lt;/tr&gt;&lt;tr&gt;&lt;td&gt;1:616:6&lt;br&gt;&lt;/td&gt;&lt;td&gt;7&lt;/td&gt;&lt;td&gt;XXX&lt;br&gt;&lt;/td&gt;&lt;/tr&gt;&lt;tr&gt;&lt;td&gt;1:616:7&lt;br&gt;&lt;/td&gt;&lt;td&gt;8&lt;/td&gt;&lt;td&gt;XXX&lt;br&gt;&lt;/td&gt;&lt;/tr&gt;&lt;tr&gt;&lt;td&gt;1:616:8&lt;br&gt;&lt;/td&gt;&lt;td&gt;9&lt;/td&gt;&lt;td&gt;XXX&lt;br&gt;&lt;/td&gt;&lt;/tr&gt;&lt;tr&gt;&lt;td&gt;1:616:9&lt;br&gt;&lt;/td&gt;&lt;td&gt;10&lt;/td&gt;&lt;td&gt;XXX&lt;br&gt;&lt;/td&gt;&lt;/tr&gt;&lt;/tbody&gt;&lt;/table&gt;" style="text;html=1;strokeColor=#c0c0c0;fillColor=#ffffff;overflow=fill;rounded=0;" parent="1" vertex="1">
          <mxGeometry x="70" y="-290" width="150" height="260" as="geometry" />
        </mxCell>
        <mxCell id="5kbSQxdAUydemz-pBGqZ-2" value="EXECUTION_NO_PK" style="rounded=0;whiteSpace=wrap;html=1;fillColor=#e1d5e7;strokeColor=#9673a6;fontStyle=1" parent="1" vertex="1">
          <mxGeometry x="70" y="-320" width="150" height="30" as="geometry" />
        </mxCell>
        <mxCell id="5kbSQxdAUydemz-pBGqZ-5" value="" style="rounded=0;whiteSpace=wrap;html=1;labelBackgroundColor=none;fontFamily=Helvetica;fillColor=#f5f5f5;strokeColor=#666666;fontColor=#333333;rotation=90;" parent="1" vertex="1">
          <mxGeometry x="343.75" y="556.25" width="1212.5" height="10" as="geometry" />
        </mxCell>
        <mxCell id="xCUi-T2dbf9sDKa4k8iC-1" value="&lt;table border=&quot;1&quot; width=&quot;100%&quot; height=&quot;100%&quot; cellpadding=&quot;4&quot; style=&quot;width: 100%; height: 100%; border-collapse: collapse; background-color: rgb(255, 255, 255); border: 1px solid rgb(0, 0, 0);&quot;&gt;&lt;tbody&gt;&lt;tr style=&quot;color: rgb(255, 255, 255);&quot;&gt;&lt;th style=&quot;background-color: rgb(151, 208, 119);&quot; align=&quot;left&quot;&gt;@RID&lt;/th&gt;&lt;th style=&quot;background-color: rgb(151, 208, 119);&quot; align=&quot;left&quot;&gt;ID&lt;/th&gt;&lt;th style=&quot;background-color: rgb(151, 208, 119);&quot; align=&quot;left&quot;&gt;STATUS&lt;/th&gt;&lt;/tr&gt;&lt;tr style=&quot;&quot;&gt;&lt;td&gt;1:616:0&lt;/td&gt;&lt;td&gt;1&lt;/td&gt;&lt;td&gt;XXX&lt;/td&gt;&lt;/tr&gt;&lt;tr style=&quot;&quot;&gt;&lt;td&gt;1:616:1&lt;br&gt;&lt;/td&gt;&lt;td&gt;2&lt;/td&gt;&lt;td&gt;&lt;span style=&quot;&quot;&gt;XXX&lt;/span&gt;&lt;/td&gt;&lt;/tr&gt;&lt;tr style=&quot;&quot;&gt;&lt;td&gt;1:616:2&lt;br&gt;&lt;/td&gt;&lt;td&gt;3&lt;/td&gt;&lt;td&gt;XXX&lt;/td&gt;&lt;/tr&gt;&lt;tr style=&quot;&quot;&gt;&lt;td style=&quot;&quot;&gt;1:616:3&lt;br&gt;&lt;/td&gt;&lt;td style=&quot;&quot;&gt;4&lt;/td&gt;&lt;td style=&quot;&quot;&gt;XXX&lt;/td&gt;&lt;/tr&gt;&lt;tr&gt;&lt;td&gt;1:616:4&lt;br&gt;&lt;/td&gt;&lt;td&gt;5&lt;/td&gt;&lt;td&gt;XXX&lt;br&gt;&lt;/td&gt;&lt;/tr&gt;&lt;tr&gt;&lt;td&gt;1:616:5&lt;br&gt;&lt;/td&gt;&lt;td&gt;6&lt;/td&gt;&lt;td&gt;XXX&lt;br&gt;&lt;/td&gt;&lt;/tr&gt;&lt;tr&gt;&lt;td&gt;1:616:6&lt;br&gt;&lt;/td&gt;&lt;td&gt;7&lt;/td&gt;&lt;td&gt;XXX&lt;br&gt;&lt;/td&gt;&lt;/tr&gt;&lt;tr&gt;&lt;td&gt;1:616:7&lt;br&gt;&lt;/td&gt;&lt;td&gt;8&lt;/td&gt;&lt;td&gt;XXX&lt;br&gt;&lt;/td&gt;&lt;/tr&gt;&lt;tr&gt;&lt;td&gt;1:616:8&lt;br&gt;&lt;/td&gt;&lt;td&gt;9&lt;/td&gt;&lt;td&gt;XXX&lt;br&gt;&lt;/td&gt;&lt;/tr&gt;&lt;tr&gt;&lt;td&gt;1:616:9&lt;br&gt;&lt;/td&gt;&lt;td&gt;10&lt;/td&gt;&lt;td&gt;XXX&lt;br&gt;&lt;/td&gt;&lt;/tr&gt;&lt;/tbody&gt;&lt;/table&gt;" style="text;html=1;strokeColor=#c0c0c0;fillColor=#ffffff;overflow=fill;rounded=0;" vertex="1" parent="1">
          <mxGeometry x="119" y="-722" width="150" height="260" as="geometry" />
        </mxCell>
      </root>
    </mxGraphModel>
  </diagram>
  <diagram name="WITH INDEX" id="KgS2-Kou_1_AbL3J_WTg">
    <mxGraphModel dx="1101" dy="1232" grid="0" gridSize="10" guides="1" tooltips="1" connect="1" arrows="1" fold="1" page="0" pageScale="1" pageWidth="827" pageHeight="1169" math="0" shadow="0">
      <root>
        <mxCell id="4hJL-tQH6FbzYeLpvIyz-0" />
        <mxCell id="4hJL-tQH6FbzYeLpvIyz-1" parent="4hJL-tQH6FbzYeLpvIyz-0" />
        <mxCell id="4hJL-tQH6FbzYeLpvIyz-2" value="&lt;table border=&quot;1&quot; width=&quot;100%&quot; height=&quot;100%&quot; cellpadding=&quot;4&quot; style=&quot;width: 100%; height: 100%; border-collapse: collapse; background-color: rgb(255, 255, 255); border: 1px solid rgb(0, 0, 0);&quot;&gt;&lt;tbody&gt;&lt;tr style=&quot;color: rgb(255, 255, 255);&quot;&gt;&lt;th style=&quot;background-color: rgb(151, 208, 119);&quot; align=&quot;left&quot;&gt;@KEY&lt;/th&gt;&lt;th style=&quot;background-color: rgb(151, 208, 119);&quot; align=&quot;left&quot;&gt;ID&lt;/th&gt;&lt;th style=&quot;background-color: rgb(151, 208, 119);&quot; align=&quot;left&quot;&gt;STATUS&lt;/th&gt;&lt;/tr&gt;&lt;tr style=&quot;&quot;&gt;&lt;td&gt;8194&lt;br&gt;&lt;/td&gt;&lt;td&gt;1&lt;/td&gt;&lt;td&gt;XXX&lt;/td&gt;&lt;/tr&gt;&lt;tr style=&quot;&quot;&gt;&lt;td&gt;61a0&lt;br&gt;&lt;/td&gt;&lt;td&gt;2&lt;/td&gt;&lt;td&gt;&lt;span style=&quot;&quot;&gt;XXX&lt;/span&gt;&lt;/td&gt;&lt;/tr&gt;&lt;tr style=&quot;&quot;&gt;&lt;td&gt;98ec&lt;br&gt;&lt;/td&gt;&lt;td&gt;3&lt;/td&gt;&lt;td&gt;XXX&lt;/td&gt;&lt;/tr&gt;&lt;tr style=&quot;&quot;&gt;&lt;td style=&quot;&quot;&gt;a0c9&lt;br&gt;&lt;/td&gt;&lt;td style=&quot;&quot;&gt;4&lt;/td&gt;&lt;td style=&quot;&quot;&gt;XXX&lt;/td&gt;&lt;/tr&gt;&lt;tr&gt;&lt;td&gt;5985&lt;br&gt;&lt;/td&gt;&lt;td&gt;5&lt;/td&gt;&lt;td&gt;XXX&lt;br&gt;&lt;/td&gt;&lt;/tr&gt;&lt;tr&gt;&lt;td&gt;b9b1&lt;br&gt;&lt;/td&gt;&lt;td&gt;6&lt;/td&gt;&lt;td&gt;XXX&lt;br&gt;&lt;/td&gt;&lt;/tr&gt;&lt;tr&gt;&lt;td&gt;40fd&lt;/td&gt;&lt;td&gt;7&lt;/td&gt;&lt;td&gt;XXX&lt;br&gt;&lt;/td&gt;&lt;/tr&gt;&lt;tr&gt;&lt;td&gt;c9fb&lt;br&gt;&lt;/td&gt;&lt;td&gt;8&lt;/td&gt;&lt;td&gt;XXX&lt;br&gt;&lt;/td&gt;&lt;/tr&gt;&lt;tr&gt;&lt;td&gt;30b7&lt;br&gt;&lt;/td&gt;&lt;td&gt;9&lt;/td&gt;&lt;td&gt;XXX&lt;br&gt;&lt;/td&gt;&lt;/tr&gt;&lt;tr&gt;&lt;td&gt;d083&lt;br&gt;&lt;/td&gt;&lt;td&gt;10&lt;/td&gt;&lt;td&gt;XXX&lt;br&gt;&lt;/td&gt;&lt;/tr&gt;&lt;/tbody&gt;&lt;/table&gt;" style="text;html=1;strokeColor=#c0c0c0;fillColor=#ffffff;overflow=fill;rounded=0;" vertex="1" parent="4hJL-tQH6FbzYeLpvIyz-1">
          <mxGeometry x="70" y="-290" width="150" height="260" as="geometry" />
        </mxCell>
        <mxCell id="4hJL-tQH6FbzYeLpvIyz-16" value="" style="shape=flexArrow;endArrow=classic;html=1;rounded=0;fontFamily=Helvetica;fillColor=#ffe6cc;strokeColor=#d79b00;" edge="1" parent="4hJL-tQH6FbzYeLpvIyz-1">
          <mxGeometry width="50" height="50" relative="1" as="geometry">
            <mxPoint x="240" y="-290" as="sourcePoint" />
            <mxPoint x="240" y="930" as="targetPoint" />
          </mxGeometry>
        </mxCell>
        <mxCell id="4hJL-tQH6FbzYeLpvIyz-18" value="FOO_LOCK_TABLE_PK" style="rounded=0;whiteSpace=wrap;html=1;fillColor=#e1d5e7;strokeColor=#9673a6;fontStyle=1" vertex="1" parent="4hJL-tQH6FbzYeLpvIyz-1">
          <mxGeometry x="70" y="-320" width="150" height="30" as="geometry" />
        </mxCell>
        <mxCell id="4hJL-tQH6FbzYeLpvIyz-22" value="&lt;table border=&quot;1&quot; width=&quot;100%&quot; height=&quot;100%&quot; cellpadding=&quot;4&quot; style=&quot;width: 100%; height: 100%; border-collapse: collapse; background-color: rgb(255, 255, 255); border: 1px solid rgb(0, 0, 0);&quot;&gt;&lt;tbody&gt;&lt;tr style=&quot;color: rgb(255, 255, 255);&quot;&gt;&lt;th style=&quot;background-color: rgb(151, 208, 119);&quot; align=&quot;left&quot;&gt;@KEY&lt;/th&gt;&lt;th style=&quot;background-color: rgb(151, 208, 119);&quot; align=&quot;left&quot;&gt;ID&lt;/th&gt;&lt;th style=&quot;background-color: rgb(151, 208, 119);&quot; align=&quot;left&quot;&gt;STATUS&lt;/th&gt;&lt;/tr&gt;&lt;tr style=&quot;&quot;&gt;&lt;td&gt;8194&lt;br&gt;&lt;/td&gt;&lt;td&gt;1&lt;/td&gt;&lt;td&gt;AAA&lt;/td&gt;&lt;/tr&gt;&lt;tr style=&quot;&quot;&gt;&lt;td&gt;61a0&lt;br&gt;&lt;/td&gt;&lt;td&gt;2&lt;/td&gt;&lt;td&gt;AAA&lt;/td&gt;&lt;/tr&gt;&lt;tr style=&quot;&quot;&gt;&lt;td&gt;98ec&lt;br&gt;&lt;/td&gt;&lt;td&gt;3&lt;/td&gt;&lt;td&gt;AAA&lt;/td&gt;&lt;/tr&gt;&lt;tr style=&quot;&quot;&gt;&lt;td style=&quot;&quot;&gt;a0c9&lt;br&gt;&lt;/td&gt;&lt;td style=&quot;&quot;&gt;4&lt;/td&gt;&lt;td style=&quot;&quot;&gt;AAA&lt;/td&gt;&lt;/tr&gt;&lt;tr&gt;&lt;td&gt;5985&lt;br&gt;&lt;/td&gt;&lt;td&gt;5&lt;/td&gt;&lt;td&gt;AAA&lt;/td&gt;&lt;/tr&gt;&lt;tr&gt;&lt;td&gt;b9b1&lt;br&gt;&lt;/td&gt;&lt;td&gt;6&lt;/td&gt;&lt;td&gt;AAA&lt;/td&gt;&lt;/tr&gt;&lt;tr&gt;&lt;td style=&quot;background-color: rgb(255, 255, 204);&quot;&gt;40fd&lt;br&gt;&lt;/td&gt;&lt;td style=&quot;background-color: rgb(255, 255, 204);&quot;&gt;7&lt;/td&gt;&lt;td style=&quot;background-color: rgb(255, 255, 204);&quot;&gt;XXX&lt;br&gt;&lt;/td&gt;&lt;/tr&gt;&lt;tr&gt;&lt;td&gt;c9fb&lt;br&gt;&lt;/td&gt;&lt;td&gt;8&lt;/td&gt;&lt;td&gt;BBB&lt;/td&gt;&lt;/tr&gt;&lt;tr&gt;&lt;td&gt;30b7&lt;br&gt;&lt;/td&gt;&lt;td&gt;9&lt;/td&gt;&lt;td&gt;BBB&lt;/td&gt;&lt;/tr&gt;&lt;tr&gt;&lt;td&gt;d083&lt;br&gt;&lt;/td&gt;&lt;td&gt;10&lt;/td&gt;&lt;td&gt;BBB&lt;/td&gt;&lt;/tr&gt;&lt;/tbody&gt;&lt;/table&gt;" style="text;html=1;strokeColor=#c0c0c0;fillColor=#ffffff;overflow=fill;rounded=0;" vertex="1" parent="4hJL-tQH6FbzYeLpvIyz-1">
          <mxGeometry x="70" y="670" width="150" height="260" as="geometry" />
        </mxCell>
        <mxCell id="4hJL-tQH6FbzYeLpvIyz-23" value="FOO_LOCK_TABLE_PK" style="rounded=0;whiteSpace=wrap;html=1;fillColor=#e1d5e7;strokeColor=#9673a6;fontStyle=1" vertex="1" parent="4hJL-tQH6FbzYeLpvIyz-1">
          <mxGeometry x="70" y="640" width="150" height="30" as="geometry" />
        </mxCell>
        <mxCell id="4hJL-tQH6FbzYeLpvIyz-24" value="" style="rounded=0;whiteSpace=wrap;html=1;labelBackgroundColor=none;fontFamily=Helvetica;fillColor=#f5f5f5;strokeColor=#666666;fontColor=#333333;rotation=90;" vertex="1" parent="4hJL-tQH6FbzYeLpvIyz-1">
          <mxGeometry x="461.88" y="438.13" width="976.25" height="10" as="geometry" />
        </mxCell>
        <mxCell id="4hJL-tQH6FbzYeLpvIyz-25" value="&lt;div&gt;&lt;b&gt;UPDATE &lt;/b&gt;foo.EXECUTION_PK&lt;/div&gt;&lt;div&gt;&lt;b&gt;SET &lt;/b&gt;STATUS = &#39;AAA&#39;&lt;/div&gt;&lt;div&gt;&lt;b&gt;WHERE &lt;/b&gt;ID &amp;lt;= 6&lt;/div&gt;" style="rounded=0;whiteSpace=wrap;html=1;labelBackgroundColor=none;align=left;verticalAlign=top;fontFamily=Courier New;spacingLeft=5;spacingBottom=5;spacingTop=5;" vertex="1" parent="4hJL-tQH6FbzYeLpvIyz-1">
          <mxGeometry x="260" y="40" width="220" height="460" as="geometry" />
        </mxCell>
        <mxCell id="4hJL-tQH6FbzYeLpvIyz-26" value="Session 3" style="rounded=1;whiteSpace=wrap;html=1;labelBackgroundColor=none;fontFamily=Helvetica;fillColor=#d5e8d4;strokeColor=#82b366;fontStyle=1" vertex="1" parent="4hJL-tQH6FbzYeLpvIyz-1">
          <mxGeometry x="310" y="-30" width="120" height="30" as="geometry" />
        </mxCell>
        <mxCell id="4hJL-tQH6FbzYeLpvIyz-27" value="&lt;div&gt;&lt;b&gt;BEGIN TRANSACTION&lt;/b&gt;&lt;/div&gt;" style="rounded=0;whiteSpace=wrap;html=1;labelBackgroundColor=none;align=left;verticalAlign=top;fontFamily=Courier New;spacingLeft=5;spacingBottom=0;spacingTop=0;" vertex="1" parent="4hJL-tQH6FbzYeLpvIyz-1">
          <mxGeometry x="260" width="220" height="40" as="geometry" />
        </mxCell>
        <mxCell id="4hJL-tQH6FbzYeLpvIyz-28" value="&lt;div&gt;&lt;b&gt;COMMIT&lt;/b&gt;&lt;/div&gt;" style="rounded=0;whiteSpace=wrap;html=1;labelBackgroundColor=none;align=left;verticalAlign=bottom;fontFamily=Courier New;spacingLeft=5;spacingBottom=0;spacingTop=0;" vertex="1" parent="4hJL-tQH6FbzYeLpvIyz-1">
          <mxGeometry x="260" y="500" width="220" height="30" as="geometry" />
        </mxCell>
        <mxCell id="4hJL-tQH6FbzYeLpvIyz-29" value="&lt;table border=&quot;1&quot; width=&quot;100%&quot; height=&quot;100%&quot; cellpadding=&quot;4&quot; style=&quot;width: 100%; height: 100%; border-collapse: collapse; background-color: rgb(255, 255, 255); border: 1px solid rgb(0, 0, 0);&quot;&gt;&lt;tbody&gt;&lt;tr style=&quot;color: rgb(255, 255, 255);&quot;&gt;&lt;th style=&quot;background-color: rgb(151, 208, 119);&quot; align=&quot;left&quot;&gt;@KEY&lt;/th&gt;&lt;th style=&quot;background-color: rgb(151, 208, 119);&quot; align=&quot;left&quot;&gt;MODE&lt;/th&gt;&lt;th style=&quot;background-color: rgb(151, 208, 119);&quot; align=&quot;left&quot;&gt;STATUS&lt;/th&gt;&lt;/tr&gt;&lt;tr style=&quot;&quot;&gt;&lt;td&gt;8194&lt;br&gt;&lt;/td&gt;&lt;td&gt;X&lt;/td&gt;&lt;td&gt;GRANT&lt;/td&gt;&lt;/tr&gt;&lt;tr style=&quot;&quot;&gt;&lt;td&gt;61a0&lt;br&gt;&lt;/td&gt;&lt;td&gt;X&lt;/td&gt;&lt;td&gt;GRANT&lt;/td&gt;&lt;/tr&gt;&lt;tr style=&quot;&quot;&gt;&lt;td&gt;98ec&lt;br&gt;&lt;/td&gt;&lt;td&gt;X&lt;/td&gt;&lt;td&gt;GRANT&lt;/td&gt;&lt;/tr&gt;&lt;tr style=&quot;&quot;&gt;&lt;td style=&quot;&quot;&gt;a0c9&lt;br&gt;&lt;/td&gt;&lt;td style=&quot;&quot;&gt;X&lt;/td&gt;&lt;td style=&quot;&quot;&gt;GRANT&lt;/td&gt;&lt;/tr&gt;&lt;tr&gt;&lt;td&gt;5985&lt;br&gt;&lt;/td&gt;&lt;td&gt;X&lt;/td&gt;&lt;td&gt;GRANT&lt;/td&gt;&lt;/tr&gt;&lt;tr&gt;&lt;td&gt;b9b1&lt;br&gt;&lt;/td&gt;&lt;td&gt;X&lt;/td&gt;&lt;td&gt;GRANT&lt;/td&gt;&lt;/tr&gt;&lt;tr&gt;&lt;td&gt;40fd&lt;/td&gt;&lt;td&gt;&lt;br&gt;&lt;/td&gt;&lt;td&gt;&lt;br&gt;&lt;/td&gt;&lt;/tr&gt;&lt;tr&gt;&lt;td&gt;c9fb&lt;br&gt;&lt;/td&gt;&lt;td&gt;&lt;br&gt;&lt;/td&gt;&lt;td&gt;&lt;br&gt;&lt;/td&gt;&lt;/tr&gt;&lt;tr&gt;&lt;td&gt;30b7&lt;br&gt;&lt;/td&gt;&lt;td&gt;&lt;br&gt;&lt;/td&gt;&lt;td&gt;&lt;br&gt;&lt;/td&gt;&lt;/tr&gt;&lt;tr&gt;&lt;td&gt;d083&lt;br&gt;&lt;/td&gt;&lt;td&gt;&lt;br&gt;&lt;/td&gt;&lt;td&gt;&lt;br&gt;&lt;/td&gt;&lt;/tr&gt;&lt;/tbody&gt;&lt;/table&gt;" style="text;html=1;strokeColor=#c0c0c0;fillColor=#ffffff;overflow=fill;rounded=0;" vertex="1" parent="4hJL-tQH6FbzYeLpvIyz-1">
          <mxGeometry x="280" y="100" width="150" height="260" as="geometry" />
        </mxCell>
        <mxCell id="4hJL-tQH6FbzYeLpvIyz-30" value="Session 4" style="rounded=1;whiteSpace=wrap;html=1;labelBackgroundColor=none;fontFamily=Helvetica;fillColor=#d5e8d4;strokeColor=#82b366;fontStyle=1" vertex="1" parent="4hJL-tQH6FbzYeLpvIyz-1">
          <mxGeometry x="540" y="150" width="120" height="30" as="geometry" />
        </mxCell>
        <mxCell id="4hJL-tQH6FbzYeLpvIyz-31" value="&lt;div&gt;&lt;b&gt;BEGIN TRANSACTION&lt;/b&gt;&lt;/div&gt;" style="rounded=0;whiteSpace=wrap;html=1;labelBackgroundColor=none;align=left;verticalAlign=top;fontFamily=Courier New;spacingLeft=5;spacingBottom=0;spacingTop=0;" vertex="1" parent="4hJL-tQH6FbzYeLpvIyz-1">
          <mxGeometry x="490" y="180" width="220" height="40" as="geometry" />
        </mxCell>
        <mxCell id="4hJL-tQH6FbzYeLpvIyz-32" value="&lt;div&gt;&lt;b&gt;UPDATE &lt;/b&gt;foo.EXECUTION_PK&lt;/div&gt;&lt;div&gt;&lt;b&gt;SET &lt;/b&gt;STATUS = &#39;BBB&#39;&lt;/div&gt;&lt;div&gt;&lt;b&gt;WHERE &lt;/b&gt;ID &amp;gt; 7&lt;/div&gt;" style="rounded=0;whiteSpace=wrap;html=1;labelBackgroundColor=none;align=left;verticalAlign=top;fontFamily=Courier New;spacingLeft=5;spacingBottom=5;spacingTop=5;" vertex="1" parent="4hJL-tQH6FbzYeLpvIyz-1">
          <mxGeometry x="490" y="220" width="220" height="370" as="geometry" />
        </mxCell>
        <mxCell id="4hJL-tQH6FbzYeLpvIyz-33" value="&lt;div&gt;&lt;b&gt;COMMIT&lt;/b&gt;&lt;/div&gt;" style="rounded=0;whiteSpace=wrap;html=1;labelBackgroundColor=none;align=left;verticalAlign=bottom;fontFamily=Courier New;spacingLeft=5;spacingBottom=0;spacingTop=0;" vertex="1" parent="4hJL-tQH6FbzYeLpvIyz-1">
          <mxGeometry x="490" y="590" width="220" height="30" as="geometry" />
        </mxCell>
        <mxCell id="4hJL-tQH6FbzYeLpvIyz-34" value="&lt;table border=&quot;1&quot; width=&quot;100%&quot; height=&quot;100%&quot; cellpadding=&quot;4&quot; style=&quot;width: 100%; height: 100%; border-collapse: collapse; background-color: rgb(255, 255, 255); border: 1px solid rgb(0, 0, 0);&quot;&gt;&lt;tbody&gt;&lt;tr style=&quot;color: rgb(255, 255, 255);&quot;&gt;&lt;th style=&quot;background-color: rgb(151, 208, 119);&quot; align=&quot;left&quot;&gt;@KEY&lt;/th&gt;&lt;th style=&quot;background-color: rgb(151, 208, 119);&quot; align=&quot;left&quot;&gt;MODE&lt;/th&gt;&lt;th style=&quot;background-color: rgb(151, 208, 119);&quot; align=&quot;left&quot;&gt;STATUS&lt;/th&gt;&lt;/tr&gt;&lt;tr style=&quot;&quot;&gt;&lt;td&gt;8194&lt;br&gt;&lt;/td&gt;&lt;td&gt;&lt;br&gt;&lt;/td&gt;&lt;td&gt;&lt;br&gt;&lt;/td&gt;&lt;/tr&gt;&lt;tr style=&quot;&quot;&gt;&lt;td&gt;61a0&lt;br&gt;&lt;/td&gt;&lt;td&gt;&lt;br&gt;&lt;/td&gt;&lt;td&gt;&lt;br&gt;&lt;/td&gt;&lt;/tr&gt;&lt;tr style=&quot;&quot;&gt;&lt;td&gt;98ec&lt;br&gt;&lt;/td&gt;&lt;td&gt;&lt;br&gt;&lt;/td&gt;&lt;td&gt;&lt;br&gt;&lt;/td&gt;&lt;/tr&gt;&lt;tr style=&quot;&quot;&gt;&lt;td style=&quot;&quot;&gt;a0c9&lt;br&gt;&lt;/td&gt;&lt;td style=&quot;&quot;&gt;&lt;br&gt;&lt;/td&gt;&lt;td style=&quot;&quot;&gt;&lt;br&gt;&lt;/td&gt;&lt;/tr&gt;&lt;tr&gt;&lt;td&gt;5985&lt;br&gt;&lt;/td&gt;&lt;td&gt;&lt;br&gt;&lt;/td&gt;&lt;td&gt;&lt;br&gt;&lt;/td&gt;&lt;/tr&gt;&lt;tr&gt;&lt;td&gt;b9b1&lt;br&gt;&lt;/td&gt;&lt;td&gt;&lt;br&gt;&lt;/td&gt;&lt;td&gt;&lt;br&gt;&lt;/td&gt;&lt;/tr&gt;&lt;tr&gt;&lt;td&gt;40fd&lt;/td&gt;&lt;td&gt;&lt;br&gt;&lt;/td&gt;&lt;td&gt;&lt;br&gt;&lt;/td&gt;&lt;/tr&gt;&lt;tr&gt;&lt;td&gt;c9fb&lt;br&gt;&lt;/td&gt;&lt;td&gt;X&lt;/td&gt;&lt;td&gt;GRANT&lt;br&gt;&lt;/td&gt;&lt;/tr&gt;&lt;tr&gt;&lt;td&gt;30b7&lt;br&gt;&lt;/td&gt;&lt;td&gt;X&lt;/td&gt;&lt;td&gt;GRANT&lt;/td&gt;&lt;/tr&gt;&lt;tr&gt;&lt;td&gt;d083&lt;br&gt;&lt;/td&gt;&lt;td&gt;X&lt;/td&gt;&lt;td&gt;GRANT&lt;/td&gt;&lt;/tr&gt;&lt;/tbody&gt;&lt;/table&gt;" style="text;html=1;strokeColor=#c0c0c0;fillColor=#ffffff;overflow=fill;rounded=0;" vertex="1" parent="4hJL-tQH6FbzYeLpvIyz-1">
          <mxGeometry x="510" y="290" width="150" height="260" as="geometry" />
        </mxCell>
        <mxCell id="4hJL-tQH6FbzYeLpvIyz-35" value="&lt;table border=&quot;1&quot; width=&quot;100%&quot; height=&quot;100%&quot; cellpadding=&quot;4&quot; style=&quot;width: 100%; height: 100%; border-collapse: collapse; background-color: rgb(255, 255, 255); border: 1px solid rgb(0, 0, 0);&quot;&gt;&lt;tbody&gt;&lt;tr style=&quot;color: rgb(255, 255, 255);&quot;&gt;&lt;th style=&quot;background-color: rgb(151, 208, 119);&quot; align=&quot;left&quot;&gt;@KEY&lt;/th&gt;&lt;th style=&quot;background-color: rgb(151, 208, 119);&quot; align=&quot;left&quot;&gt;SESSION 3&lt;/th&gt;&lt;th style=&quot;background-color: rgb(151, 208, 119);&quot; align=&quot;left&quot;&gt;SESSION 4&lt;/th&gt;&lt;/tr&gt;&lt;tr style=&quot;&quot;&gt;&lt;td&gt;8194&lt;br&gt;&lt;/td&gt;&lt;td&gt;X : GRANT&lt;/td&gt;&lt;td&gt;&lt;br&gt;&lt;/td&gt;&lt;/tr&gt;&lt;tr style=&quot;&quot;&gt;&lt;td&gt;61a0&lt;br&gt;&lt;/td&gt;&lt;td&gt;X : GRANT&lt;br&gt;&lt;/td&gt;&lt;td&gt;&lt;br&gt;&lt;/td&gt;&lt;/tr&gt;&lt;tr style=&quot;&quot;&gt;&lt;td&gt;98ec&lt;br&gt;&lt;/td&gt;&lt;td&gt;X : GRANT&lt;br&gt;&lt;/td&gt;&lt;td&gt;&lt;br&gt;&lt;/td&gt;&lt;/tr&gt;&lt;tr style=&quot;&quot;&gt;&lt;td style=&quot;&quot;&gt;a0c9&lt;br&gt;&lt;/td&gt;&lt;td style=&quot;&quot;&gt;X : GRANT&lt;br&gt;&lt;/td&gt;&lt;td style=&quot;&quot;&gt;&lt;br&gt;&lt;/td&gt;&lt;/tr&gt;&lt;tr&gt;&lt;td&gt;5985&lt;br&gt;&lt;/td&gt;&lt;td&gt;X : GRANT&lt;br&gt;&lt;/td&gt;&lt;td&gt;&lt;br&gt;&lt;/td&gt;&lt;/tr&gt;&lt;tr&gt;&lt;td&gt;b9b1&lt;br&gt;&lt;/td&gt;&lt;td&gt;X : GRANT&lt;br&gt;&lt;/td&gt;&lt;td&gt;&lt;br&gt;&lt;/td&gt;&lt;/tr&gt;&lt;tr&gt;&lt;td&gt;40fd&lt;/td&gt;&lt;td&gt;&lt;br&gt;&lt;/td&gt;&lt;td&gt;&lt;br&gt;&lt;/td&gt;&lt;/tr&gt;&lt;tr&gt;&lt;td&gt;c9fb&lt;br&gt;&lt;/td&gt;&lt;td&gt;&lt;br&gt;&lt;/td&gt;&lt;td&gt;X : GRANT&lt;br&gt;&lt;/td&gt;&lt;/tr&gt;&lt;tr&gt;&lt;td&gt;30b7&lt;br&gt;&lt;/td&gt;&lt;td&gt;&lt;br&gt;&lt;/td&gt;&lt;td&gt;X : GRANT&lt;br&gt;&lt;/td&gt;&lt;/tr&gt;&lt;tr&gt;&lt;td&gt;d083&lt;br&gt;&lt;/td&gt;&lt;td&gt;&lt;br&gt;&lt;/td&gt;&lt;td&gt;X : GRANT&lt;br&gt;&lt;/td&gt;&lt;/tr&gt;&lt;/tbody&gt;&lt;/table&gt;" style="text;html=1;strokeColor=#c0c0c0;fillColor=#ffffff;overflow=fill;rounded=0;" vertex="1" parent="4hJL-tQH6FbzYeLpvIyz-1">
          <mxGeometry x="720" y="240" width="200" height="260" as="geometry" />
        </mxCell>
      </root>
    </mxGraphModel>
  </diagram>
</mxfile>
